<mxfile host="app.diagrams.net" modified="2023-07-31T18:45:58.246Z" agent="Mozilla/5.0 (Windows NT 10.0; Win64; x64) AppleWebKit/537.36 (KHTML, like Gecko) Chrome/114.0.0.0 Safari/537.36" etag="u_8px3n9g-GoGb-Xqui7" version="21.6.6" type="github">
  <diagram name="Page-1" id="bMWYh2EHfCeD_MVpmSU7">
    <mxGraphModel dx="472" dy="754" grid="1" gridSize="10" guides="1" tooltips="1" connect="1" arrows="1" fold="1" page="1" pageScale="1" pageWidth="850" pageHeight="1100" math="0" shadow="0">
      <root>
        <mxCell id="0" />
        <mxCell id="1" parent="0" />
        <mxCell id="ZT0bNW4Sw8YkX2uZJB2J-1" value="Hiperprolactinemia" style="text;strokeColor=none;fillColor=none;html=1;fontSize=24;fontStyle=1;verticalAlign=middle;align=left;fontColor=#FF0000;" vertex="1" parent="1">
          <mxGeometry x="40" y="40" width="180" height="40" as="geometry" />
        </mxCell>
        <mxCell id="ZT0bNW4Sw8YkX2uZJB2J-2" value="&lt;br&gt;Causas&lt;br&gt;&lt;ol&gt;&lt;li&gt;Embarazo&lt;/li&gt;&lt;li&gt;Neurolepticos, Antidepresivos y estrogenos&lt;/li&gt;&lt;li&gt;Prolactinoma&lt;/li&gt;&lt;li&gt;Hipotiroidismo&lt;/li&gt;&lt;/ol&gt;" style="rounded=1;whiteSpace=wrap;html=1;arcSize=10;align=left;verticalAlign=middle;" vertex="1" parent="1">
          <mxGeometry x="80" y="120" width="160" height="120" as="geometry" />
        </mxCell>
        <mxCell id="ZT0bNW4Sw8YkX2uZJB2J-5" value="" style="edgeStyle=orthogonalEdgeStyle;rounded=0;orthogonalLoop=1;jettySize=auto;html=1;" edge="1" parent="1" source="ZT0bNW4Sw8YkX2uZJB2J-3" target="ZT0bNW4Sw8YkX2uZJB2J-4">
          <mxGeometry relative="1" as="geometry" />
        </mxCell>
        <mxCell id="ZT0bNW4Sw8YkX2uZJB2J-3" value="↑ PRL&amp;nbsp;" style="rounded=1;whiteSpace=wrap;html=1;" vertex="1" parent="1">
          <mxGeometry x="250" y="120" width="60" height="30" as="geometry" />
        </mxCell>
        <mxCell id="ZT0bNW4Sw8YkX2uZJB2J-7" value="" style="edgeStyle=orthogonalEdgeStyle;rounded=0;orthogonalLoop=1;jettySize=auto;html=1;" edge="1" parent="1" source="ZT0bNW4Sw8YkX2uZJB2J-15" target="ZT0bNW4Sw8YkX2uZJB2J-6">
          <mxGeometry relative="1" as="geometry" />
        </mxCell>
        <mxCell id="ZT0bNW4Sw8YkX2uZJB2J-13" value="" style="edgeStyle=orthogonalEdgeStyle;rounded=0;orthogonalLoop=1;jettySize=auto;html=1;" edge="1" parent="1" source="ZT0bNW4Sw8YkX2uZJB2J-4" target="ZT0bNW4Sw8YkX2uZJB2J-11">
          <mxGeometry relative="1" as="geometry" />
        </mxCell>
        <mxCell id="ZT0bNW4Sw8YkX2uZJB2J-4" value="↓GnRH&amp;nbsp;" style="rounded=1;whiteSpace=wrap;html=1;" vertex="1" parent="1">
          <mxGeometry x="340" y="120" width="60" height="30" as="geometry" />
        </mxCell>
        <mxCell id="ZT0bNW4Sw8YkX2uZJB2J-9" value="" style="edgeStyle=orthogonalEdgeStyle;rounded=0;orthogonalLoop=1;jettySize=auto;html=1;" edge="1" parent="1" source="ZT0bNW4Sw8YkX2uZJB2J-6" target="ZT0bNW4Sw8YkX2uZJB2J-8">
          <mxGeometry relative="1" as="geometry" />
        </mxCell>
        <mxCell id="ZT0bNW4Sw8YkX2uZJB2J-6" value="↓ Testosterona y estrogenos" style="rounded=1;whiteSpace=wrap;html=1;" vertex="1" parent="1">
          <mxGeometry x="530" y="120" width="80" height="30" as="geometry" />
        </mxCell>
        <mxCell id="ZT0bNW4Sw8YkX2uZJB2J-8" value="Hipogonadismo" style="rounded=1;whiteSpace=wrap;html=1;" vertex="1" parent="1">
          <mxGeometry x="527" y="190" width="86" height="30" as="geometry" />
        </mxCell>
        <mxCell id="ZT0bNW4Sw8YkX2uZJB2J-11" value="Hipogonadotropo" style="rounded=1;whiteSpace=wrap;html=1;" vertex="1" parent="1">
          <mxGeometry x="320" y="190" width="100" height="30" as="geometry" />
        </mxCell>
        <mxCell id="ZT0bNW4Sw8YkX2uZJB2J-14" value="" style="edgeStyle=orthogonalEdgeStyle;rounded=0;orthogonalLoop=1;jettySize=auto;html=1;" edge="1" parent="1" source="ZT0bNW4Sw8YkX2uZJB2J-4" target="ZT0bNW4Sw8YkX2uZJB2J-15">
          <mxGeometry relative="1" as="geometry">
            <mxPoint x="400" y="135" as="sourcePoint" />
            <mxPoint x="523" y="135" as="targetPoint" />
          </mxGeometry>
        </mxCell>
        <mxCell id="ZT0bNW4Sw8YkX2uZJB2J-15" value="↓FSH y LH" style="rounded=1;whiteSpace=wrap;html=1;" vertex="1" parent="1">
          <mxGeometry x="440" y="120" width="60" height="30" as="geometry" />
        </mxCell>
        <mxCell id="ZT0bNW4Sw8YkX2uZJB2J-20" value="Amenorrea, Impotencia, ↓ libido, ginecomastia" style="rounded=1;whiteSpace=wrap;html=1;" vertex="1" parent="1">
          <mxGeometry x="400" y="270" width="120" height="60" as="geometry" />
        </mxCell>
      </root>
    </mxGraphModel>
  </diagram>
</mxfile>
